<?xml version="1.0" encoding="UTF-8"?>
<svg version="1.1" xmlns="http://www.w3.org/2000/svg" width="5333" height="4675">
<path d="M0 0 C1.61628241 -0.00323275 3.23256456 -0.00659811 4.84884644 -0.01008606 C8.2289904 -0.0160322 11.609109 -0.01793129 14.98925781 -0.01733398 C18.36854525 -0.01725374 21.74769417 -0.02403811 25.12695312 -0.0378418 C92.31398861 -0.30791221 154.989759 8.25975028 218.9921875 29.16796875 C220.1589502 29.54646973 221.32571289 29.9249707 222.52783203 30.31494141 C250.09909932 39.32488534 276.89993438 50.40768129 303.11474609 62.80712891 C306.10714896 64.22233793 309.10630257 65.62262651 312.10546875 67.0234375 C375.88797788 97.0190755 433.74173013 137.1144134 487.28759766 182.71777344 C489.01338079 184.18599914 490.74293022 185.64970408 492.47265625 187.11328125 C499.4509566 193.03596706 506.25869625 199.10624944 512.953125 205.34765625 C515.72446337 207.92992036 518.53929957 210.46014567 521.3671875 212.98046875 C524.76414384 216.02129257 528.01283731 219.15576582 531.20288086 222.41113281 C532.86462527 224.0427214 534.57494747 225.5395332 536.35546875 227.0390625 C542.08060513 232.01995745 547.39311732 237.41960206 552.74682617 242.79223633 C554.55080835 244.60157808 556.36007415 246.40551194 558.16992188 248.20898438 C563.49286918 253.52918407 568.74157413 258.84925189 573.62475586 264.58227539 C575.4726802 266.72515499 577.4620821 268.69846351 579.4921875 270.66796875 C582.84152479 273.97783573 585.99144706 277.37543824 589.0546875 280.94921875 C590.97813943 283.15188145 592.95308651 285.30093361 594.94213867 287.44433594 C599.75216835 292.62931225 604.30939019 297.94085695 608.74609375 303.453125 C611.0804934 306.2747037 613.51209348 308.97387587 615.9921875 311.66796875 C620.41100669 316.47987308 624.56452512 321.45066508 628.6640625 326.53515625 C630.16650488 328.38227659 631.68735613 330.2132472 633.2109375 332.04296875 C640.2479945 340.50343944 647.0712888 349.08695164 653.71484375 357.859375 C656.49920684 361.53366369 659.32880389 365.17029764 662.17211914 368.79907227 C669.39184372 378.01653145 676.39948474 387.37453162 683.29394531 396.83740234 C684.9370271 399.09226991 686.58557471 401.34306242 688.234375 403.59375 C696.7574241 415.2689992 704.92110202 427.17697213 712.9921875 439.16796875 C714.06243164 440.75689941 714.06243164 440.75689941 715.15429688 442.37792969 C770.94854611 525.33581209 819.95918925 612.9636574 871.36083984 721.59326172 C873.19307936 725.60817506 875.05392369 729.60916353 876.91796875 733.609375 C886.97891286 755.23803077 896.52064821 777.06367468 905.81640625 799.03125 C907.56366721 803.160009 909.32052845 807.28458038 911.08119202 811.40763855 C946.83125482 895.16866698 977.17071105 981.05669416 1041.02416992 1180.63354492 C1041.39702118 1181.95865334 1041.39702118 1181.95865334 1041.77740479 1183.31053162 C1042.23452451 1184.93697239 1042.68574441 1186.5650891 1043.12957764 1188.19520569 C1044.2691547 1192.23696793 1045.47008121 1195.78017423 1047.9921875 1199.16796875 C1050.58341493 1200.05455341 1050.58341493 1200.05455341 1052.9921875 1200.16796875 C1052.46625 1201.99328125 1052.46625 1201.99328125 1051.9296875 1203.85546875 C1049.98241504 1212.61128961 1051.49136356 1221.66516735 1053.9921875 1230.16796875 C1054.7759375 1229.34296875 1055.5596875 1228.51796875 1056.3671875 1227.66796875 C1058.9921875 1225.16796875 1058.9921875 1225.16796875 1060.9921875 1225.16796875 C1060.8271875 1226.15796875 1060.6621875 1227.14796875 1060.4921875 1228.16796875 C1059.35642436 1237.52131224 1058.18206679 1248.7502575 1062.9921875 1257.16796875 C1065.1016834 1257.90297027 1066.76116133 1258.16796875 1068.9921875 1258.16796875 C1068.9303125 1259.77671875 1068.9303125 1259.77671875 1068.8671875 1261.41796875 C1068.8671875 1267.11065363 1069.9584457 1272.58715997 1070.9921875 1278.16796875 C1071.18296875 1279.22886719 1071.37375 1280.28976562 1071.5703125 1281.3828125 C1072.03810301 1283.97904982 1072.51219462 1286.5739647 1072.9921875 1289.16796875 C1073.3221875 1288.50796875 1073.6521875 1287.84796875 1073.9921875 1287.16796875 C1077.69370599 1288.40180825 1078.36227518 1290.05996581 1080.140625 1293.40625 C1082.20463185 1297.67628253 1082.08301615 1301.44487884 1081.9921875 1306.16796875 C1081.0021875 1306.16796875 1080.0121875 1306.16796875 1078.9921875 1306.16796875 C1077.6721875 1303.85796875 1076.3521875 1301.54796875 1074.9921875 1299.16796875 C1082.14659767 1331.8479773 1089.89309155 1364.36737834 1097.8671875 1396.85546875 C1098.10476273 1397.82339859 1098.34233795 1398.79132843 1098.58711243 1399.78858948 C1100.4867617 1407.5268317 1102.3873522 1415.26484302 1104.2894516 1423.00248337 C1108.69436385 1440.92169642 1113.04708022 1458.85313959 1117.3671875 1476.79296875 C1117.81260895 1478.64177139 1117.81260895 1478.64177139 1118.26702881 1480.52792358 C1119.84400375 1487.07414376 1121.41943401 1493.62073304 1122.9921875 1500.16796875 C1122.98058594 1499.39710937 1122.96898438 1498.62625 1122.95703125 1497.83203125 C1122.94800781 1496.82914063 1122.93898437 1495.82625 1122.9296875 1494.79296875 C1122.91228516 1493.29636719 1122.91228516 1493.29636719 1122.89453125 1491.76953125 C1122.9921875 1489.16796875 1122.9921875 1489.16796875 1123.9921875 1487.16796875 C1124.6521875 1487.16796875 1125.3121875 1487.16796875 1125.9921875 1487.16796875 C1129.01210317 1494.95079312 1131.29267879 1502.74457466 1133.24609375 1510.85546875 C1133.85947651 1513.35678586 1134.47292291 1515.85808735 1135.08642578 1518.359375 C1135.4036878 1519.661596 1135.72084632 1520.96384223 1136.03790283 1522.26611328 C1136.96303249 1526.05851198 1137.90710535 1529.84603 1138.85498047 1533.6328125 C1160.85062491 1621.53959697 1179.8320212 1710.11020449 1197.20505428 1799.03657341 C1199.20400817 1809.2634719 1201.22438117 1819.48611201 1203.24452591 1829.70884132 C1207.40649229 1850.77555339 1211.52039331 1871.8512891 1215.59276009 1892.93550014 C1216.58151297 1898.05253497 1217.57737091 1903.16810909 1218.57861328 1908.28271484 C1228.13868386 1957.21414501 1235.28094896 2006.54612301 1242.60585022 2055.85112095 C1243.60404016 2062.56808601 1244.60897793 2069.28399618 1245.62011719 2075.99902344 C1258.20866693 2159.65469942 1267.95549753 2243.712934 1283.9921875 2443.16796875 C1284.06266296 2444.38478333 1284.13313843 2445.6015979 1284.20574951 2446.85528564 C1289.05501555 2531.23586959 1290.66078777 2615.86092591 1238.3046875 3091.98046875 C1238.04055054 3093.10031158 1237.77641357 3094.22015442 1237.50427246 3095.37393188 C1231.92102664 3118.9668685 1226.22093151 3142.50826845 1218.6171875 3165.54296875 C1218.3256076 3166.43307648 1218.03402771 3167.3231842 1217.73361206 3168.24026489 C1204.46350629 3208.64371403 1188.61320917 3248.19562626 1171.0546875 3286.91796875 C1170.60533844 3287.90984192 1170.60533844 3287.90984192 1170.14691162 3288.92175293 C1163.55568133 3303.42729566 1156.39547061 3317.62619957 1148.8671875 3331.66796875 C1148.5502594 3332.25958801 1148.2333313 3332.85120728 1147.90679932 3333.46075439 C1141.77385485 3344.89048827 1135.32479429 3356.11924664 1128.70507812 3367.27441406 C1126.96163532 3370.21957999 1125.23309797 3373.17307206 1123.5078125 3376.12890625 C1115.24724735 3390.25720732 1106.64887577 3403.6077549 1096.41113281 3416.38574219 C1095.01545365 3418.13874595 1093.63759981 3419.90418292 1092.265625 3421.67578125 C1087.12437882 3428.30686773 1081.83942835 3434.7729461 1076.34326172 3441.11352539 C1073.21643311 3444.72270024 1070.17384424 3448.38437752 1067.1796875 3452.10546875 C1064.21215021 3455.76275794 1061.14537204 3459.14712227 1057.75097656 3462.40820312 C1056.0969291 3464.06316899 1054.59658598 3465.76987512 1053.08984375 3467.55859375 C1048.25149448 3473.12435588 1043.01680115 3478.29288275 1037.79516602 3483.49536133 C1036.0582515 3485.22691575 1034.32674861 3486.96375234 1032.59570312 3488.70117188 C1026.89742207 3494.4031805 1021.1629505 3499.97242655 1014.9921875 3505.16796875 C1013.97044847 3506.05625097 1012.94956861 3506.94552273 1011.9296875 3507.8359375 C987.9732027 3528.38372034 961.51095485 3545.63924211 932.9921875 3559.16796875 C932.24952637 3559.52600586 931.50686523 3559.88404297 930.74169922 3560.25292969 C911.32125089 3569.56925044 891.49145443 3576.86133159 869.9921875 3579.16796875 C869.15623047 3579.26271484 868.32027344 3579.35746094 867.45898438 3579.45507812 C845.2339759 3581.93562214 822.42444263 3583.60990114 800.1171875 3581.35546875 C799.002229 3581.25045044 799.002229 3581.25045044 797.86474609 3581.14331055 C793.56138515 3580.64501096 790.52176523 3579.69403909 786.9921875 3577.16796875 C787.34678355 3574.53662154 787.62283874 3573.45495064 789.75805664 3571.79589844 C790.50692139 3571.39790039 791.25578613 3570.99990234 792.02734375 3570.58984375 C792.83623047 3570.1515625 793.64511719 3569.71328125 794.47851562 3569.26171875 C795.32865234 3568.81828125 796.17878906 3568.37484375 797.0546875 3567.91796875 C798.33569336 3567.22960938 798.33569336 3567.22960938 799.64257812 3566.52734375 C801.7530468 3565.39547228 803.86935 3564.27641739 805.9921875 3563.16796875 C801.92487242 3564.05909409 798.62784465 3565.9058538 795.0546875 3567.98046875 C794.44689453 3568.32400391 793.83910156 3568.66753906 793.21289062 3569.02148438 C786.12104674 3572.94342845 786.12104674 3572.94342845 781.6796875 3579.41796875 C781.4528125 3580.32546875 781.2259375 3581.23296875 780.9921875 3582.16796875 C778.0221875 3581.83796875 775.0521875 3581.50796875 771.9921875 3581.16796875 C772.4871875 3584.13796875 772.4871875 3584.13796875 772.9921875 3587.16796875 C771.80882813 3587.131875 770.62546875 3587.09578125 769.40625 3587.05859375 C756.81246329 3587.09169174 744.08539101 3594.06545843 732.58813477 3598.71289062 C634.83875819 3638.21344147 549.00196992 3640.80017034 387.95924377 3577.43283081 C351.78511648 3562.0480517 316.23105431 3545.58029744 280.9921875 3528.16796875 C280.1580835 3527.75639526 279.32397949 3527.34482178 278.46459961 3526.92077637 C260.97403018 3518.28977615 243.50055025 3509.66473346 226.453125 3500.1796875 C222.27708744 3497.85940507 218.06853726 3495.60493241 213.84375 3493.375 C200.99621985 3486.59048588 188.25931487 3479.70757594 175.74951172 3472.31030273 C168.80892537 3468.20809676 161.79702158 3464.25738798 154.7421875 3460.35546875 C143.0983106 3453.89511356 131.73615789 3447.01835034 120.3828125 3440.06640625 C115.369604 3436.99790122 110.32585641 3433.99279072 105.2421875 3431.04296875 C74.31224731 3413.02207668 44.40744377 3393.06811627 14.51513672 3373.38745117 C12.57320763 3372.10957349 10.63049063 3370.83289241 8.68701172 3369.55737305 C-10.50263834 3356.96286046 -10.50263834 3356.96286046 -18.75146484 3350.8347168 C-22.47087895 3348.08721192 -26.30434189 3345.51013233 -30.1328125 3342.91796875 C-44.51362847 3333.12434628 -58.65781714 3323.01323217 -72.74609375 3312.8046875 C-74.98720983 3311.18287811 -77.23132565 3309.56531743 -79.4765625 3307.94921875 C-97.52598825 3294.95410605 -115.35008667 3281.69052578 -133.0078125 3268.16796875 C-134.51026554 3267.01933354 -136.01286259 3265.87088668 -137.515625 3264.72265625 C-148.77733706 3256.11604032 -148.77733706 3256.11604032 -154.171875 3251.96484375 C-163.88548822 3244.49839285 -173.70593438 3237.18980744 -183.58740234 3229.94726562 C-186.02083484 3228.15839574 -188.44694977 3226.36002631 -190.87109375 3224.55859375 C-200.16793535 3217.65679116 -209.54022723 3210.90644954 -219.13867188 3204.4296875 C-220.92678519 3203.2226643 -222.70966823 3202.00823104 -224.4921875 3200.79296875 C-249.56574909 3183.79156246 -275.73672557 3168.81142407 -302.65234375 3154.94140625 C-305.89669328 3153.26915553 -309.12547697 3151.57561853 -312.33203125 3149.83203125 C-365.05828934 3121.25333295 -421.6274456 3098.69022739 -477.815979 3077.97607422 C-479.9760639 3077.17967412 -482.13527753 3076.38094555 -484.29443359 3075.58203125 C-571.45648058 3043.38652279 -660.56483906 3017.1273098 -927.0078125 2952.16796875 C-928.09976425 2951.93374332 -928.09976425 2951.93374332 -929.21377563 2951.69478607 C-1007.79395634 2934.84678907 -1086.77161062 2920.1388725 -1308.2109375 2886.96875 C-1308.92126129 2886.88700027 -1309.63158508 2886.80525055 -1310.36343384 2886.72102356 C-1315.61329127 2886.14429433 -1320.73269841 2885.99780378 -1326.0078125 2886.16796875 C-1324.60982422 2886.29751953 -1324.60982422 2886.29751953 -1323.18359375 2886.4296875 C-1314.19439712 2887.42040786 -1306.18203439 2889.04117712 -1298.0078125 2893.16796875 C-1297.6778125 2893.82796875 -1297.3478125 2894.48796875 -1297.0078125 2895.16796875 C-1297.71164063 2895.15894531 -1298.41546875 2895.14992188 -1299.140625 2895.140625 C-1320.30963459 2895.776248 -1336.92851734 2913.17396164 -1350.7421875 2927.50390625 C-1362.75767578 2940.37460833 -1371.02441699 2955.58828359 -1379.0078125 2971.16796875 C-1379.73363525 2972.57272461 -1379.73363525 2972.57272461 -1380.47412109 2974.00585938 C-1389.82351424 2992.25808871 -1396.52180501 3011.01717531 -1401.140625 3030.984375 C-1401.88810626 3033.72850666 -1402.68777896 3035.69532157 -1404.1328125 3038.10546875 C-1407.57159835 3044.45916291 -1407.47049648 3052.10093792 -1408.0078125 3059.16796875 C-1408.08741211 3060.17762695 -1408.16701172 3061.18728516 -1408.24902344 3062.22753906 C-1411.66231912 3107.42382392 -1412.19794377 3152.91715381 -1412.253685 3198.22452164 C-1412.25778273 3200.83649191 -1412.26529001 3203.448434 -1412.27349854 3206.06039429 C-1412.28530527 3210.19971436 -1412.28544566 3214.33888438 -1412.276577 3218.47821045 C-1412.27452687 3219.99742542 -1412.27556162 3221.51664856 -1412.28009415 3223.03585815 C-1412.35868883 3242.14330797 -1412.35868883 3242.14330797 -1405.8828125 3259.79296875 C-1402.0078125 3266.72506218 -1402.0078125 3266.72506218 -1402.0078125 3271.16796875 C-1405.11827311 3269.83059494 -1406.75452714 3268.56121969 -1408.671875 3265.78125 C-1409.14939209 3265.09716064 -1409.62690918 3264.41307129 -1410.11889648 3263.70825195 C-1410.61848877 3262.9730835 -1411.11808105 3262.23791504 -1411.6328125 3261.48046875 C-1412.41797241 3260.34774536 -1412.41797241 3260.34774536 -1413.21899414 3259.19213867 C-1417.09910388 3253.5713531 -1420.90445455 3247.89722923 -1424.62158203 3242.16723633 C-1427.18484916 3238.25159433 -1429.96171899 3234.70831377 -1433.0078125 3231.16796875 C-1419.03179983 3255.28327366 -1419.03179983 3255.28327366 -1400.8515625 3276.0546875 C-1396.5858832 3280.94395127 -1397.68213163 3289.49470757 -1397.4609375 3295.70703125 C-1397.41857971 3296.84693512 -1397.37622192 3297.98683899 -1397.33258057 3299.1612854 C-1397.04059956 3307.65072318 -1396.91926349 3316.1349713 -1396.8671875 3324.62890625 C-1396.84766353 3327.10546881 -1396.82813222 3329.58203131 -1396.80859375 3332.05859375 C-1396.77979144 3335.7980127 -1396.7578133 3339.53683025 -1396.75732422 3343.27636719 C-1396.74036211 3361.77476141 -1394.77054599 3379.06731256 -1391.0078125 3397.16796875 C-1390.6657795 3398.89511052 -1390.32633291 3400.62276781 -1389.99023438 3402.35107422 C-1389.41418049 3405.30511402 -1388.82877683 3408.2568808 -1388.23071289 3411.20654297 C-1375.64204594 3473.43779334 -1379.80931638 3541.5724804 -1400.0078125 3602.16796875 C-1399.45351562 3602.36132812 -1398.89921875 3602.5546875 -1398.328125 3602.75390625 C-1397.60367188 3603.01429688 -1396.87921875 3603.2746875 -1396.1328125 3603.54296875 C-1395.41351562 3603.79820312 -1394.69421875 3604.0534375 -1393.953125 3604.31640625 C-1392.0078125 3605.16796875 -1392.0078125 3605.16796875 -1390.0078125 3607.16796875 C-1390.0078125 3608.48796875 -1390.0078125 3609.80796875 -1390.0078125 3611.16796875 C-1390.6678125 3611.49796875 -1391.3278125 3611.82796875 -1392.0078125 3612.16796875 C-1382.00841024 3619.95215689 -1371.90697189 3627.46963909 -1361.40039062 3634.55419922 C-1304.61311757 3672.85663543 -1304.61311757 3672.85663543 -1279.0078125 3694.16796875 C-1277.88933461 3695.08985793 -1276.77084546 3696.01173346 -1275.65234375 3696.93359375 C-1235.33331397 3730.37542386 -1218.52634099 3765.36822354 -1213.6027832 3817.33911133 C-1212.25548882 3832.94048495 -1211.81727756 3848.56024762 -1211.56225586 3864.21102905 C-1211.50645275 3867.62618554 -1211.44614816 3871.04123831 -1211.38476562 3874.45629883 C-1211.23339767 3882.92295173 -1211.08877705 3891.38971624 -1210.9453125 3899.85650635 C-1210.82328233 3907.05140037 -1210.69799863 3914.24622229 -1210.56811523 3921.440979 C-1210.50897101 3924.78987084 -1210.45460683 3928.13881829 -1210.40039062 3931.48779297 C-1210.36353172 3933.5517623 -1210.32643491 3935.6157274 -1210.2890625 3937.6796875 C-1210.27552734 3938.59728348 -1210.26199219 3939.51487946 -1210.24804688 3940.46028137 C-1210.1336952 3946.40529722 -1209.6861556 3952.26096219 -1209.0078125 3958.16796875 C-1208.3478125 3956.51796875 -1207.6878125 3954.86796875 -1207.0078125 3953.16796875 C-1206.0178125 3953.66296875 -1206.0178125 3953.66296875 -1205.0078125 3954.16796875 C-1204.57300939 3955.5885241 -1204.21095581 3957.03155425 -1203.8828125 3958.48046875 C-1201.39290277 3967.25145731 -1195.68667466 3974.23218093 -1189.8828125 3981.10546875 C-1184.4514939 3987.75562656 -1180.48484261 3995.54280525 -1179.0078125 4004.04296875 C-1178.4096573 4007.47613035 -1177.42447313 4009.10166892 -1175.0078125 4011.60546875 C-1169.24797285 4017.62544798 -1169.66593562 4027.18395061 -1169.3828125 4035.10546875 C-1169.34559082 4036.04003906 -1169.30836914 4036.97460938 -1169.27001953 4037.9375 C-1166.8600957 4105.63748017 -1166.8600957 4105.63748017 -1176.50390625 4116.91796875 C-1178.40068472 4119.75574641 -1178.89711587 4122.27254009 -1179.6328125 4125.60546875 C-1184.13636565 4144.0635634 -1193.10417805 4163.77516677 -1205.54296875 4178.19140625 C-1208.46608988 4181.72138771 -1211.07914493 4185.40800432 -1213.6953125 4189.16796875 C-1232.46678301 4216.00896531 -1232.46678301 4216.00896531 -1242.64453125 4226.6875 C-1244.61024526 4228.75068743 -1246.44200661 4230.85021076 -1248.2578125 4233.04296875 C-1257.01155442 4243.12239755 -1267.5436417 4251.94075842 -1278.0078125 4260.16796875 C-1279.49474609 4261.38226562 -1279.49474609 4261.38226562 -1281.01171875 4262.62109375 C-1320.56594176 4294.54700232 -1375.68461264 4301.59227506 -1425.0078125 4300.16796875 C-1425.0078125 4298.16796875 -1425.0078125 4296.16796875 -1425.0078125 4294.16796875 C-1426.13814548 4295.4131484 -1427.26186286 4296.66433527 -1428.3828125 4297.91796875 C-1429.32253906 4298.96210937 -1429.32253906 4298.96210937 -1430.28125 4300.02734375 C-1431.88286433 4302.01305563 -1432.97301318 4303.84750968 -1434.0078125 4306.16796875 C-1432.863125 4305.67296875 -1432.863125 4305.67296875 -1431.6953125 4305.16796875 C-1429.0078125 4304.16796875 -1429.0078125 4304.16796875 -1426.0078125 4304.16796875 C-1427.08182358 4307.08314167 -1427.78591426 4308.94607051 -1430.0078125 4311.16796875 C-1431.77125 4311.41546875 -1431.77125 4311.41546875 -1433.5703125 4311.66796875 C-1439.72099386 4313.10275699 -1443.43401224 4318.24680942 -1447.0078125 4323.16796875 C-1447.48587892 4324.05225258 -1447.96394534 4324.93653642 -1448.45649862 4325.84761673 C-1451.10435622 4330.33607327 -1453.11296602 4333.59964654 -1458.25370502 4335.14151084 C-1462.35728174 4335.45347961 -1466.32968267 4335.41536941 -1470.43615723 4335.2563324 C-1472.00340753 4335.23683896 -1473.57072744 4335.2223949 -1475.1380682 4335.2125746 C-1478.52386412 4335.18085159 -1481.90655998 4335.11441728 -1485.29120922 4335.02093518 C-1490.76986663 4334.86998931 -1496.24803725 4334.79591174 -1501.72830963 4334.73219204 C-1508.53496462 4334.64785486 -1515.34084754 4334.54459472 -1522.14684054 4334.4175195 C-1534.57569119 4334.18622364 -1547.00151452 4334.08365944 -1559.43237305 4334.05422974 C-1560.81960975 4334.05072503 -1560.81960975 4334.05072503 -1562.23487145 4334.04714952 C-1566.0010221 4334.03782316 -1569.76717313 4334.02901433 -1573.53332737 4334.02126335 C-1584.30165886 4333.99830983 -1595.06980426 4333.94342841 -1605.8380127 4333.88868713 C-1607.86289946 4333.87861386 -1609.88778639 4333.86857364 -1611.91267347 4333.85856599 C-1616.03510375 4333.8381743 -1620.15753335 4333.81765343 -1624.27996254 4333.79704213 C-1630.72325469 4333.76491435 -1637.16655079 4333.73363395 -1643.60984802 4333.70254326 C-1644.70001503 4333.69728126 -1645.79018204 4333.69201926 -1646.91338441 4333.68659781 C-1649.13239594 4333.67588862 -1651.35140747 4333.66518035 -1653.57041901 4333.654473 C-1674.10352756 4333.55529583 -1694.63662315 4333.45362536 -1715.16971511 4333.35107815 C-1733.67338228 4333.25873901 -1752.17706244 4333.1693952 -1770.68075126 4333.08151073 C-1789.99574259 4332.98974744 -1809.31072317 4332.89595525 -1828.62569475 4332.80012316 C-1830.83870473 4332.78914918 -1833.05171472 4332.77817812 -1835.26472473 4332.76721001 C-1836.89524588 4332.75912874 -1836.89524588 4332.75912874 -1838.55870685 4332.75088422 C-1845.96509264 4332.71429592 -1853.37148354 4332.67891616 -1860.77787781 4332.64409065 C-1905.0603972 4332.43519298 -1949.34172613 4332.15927679 -1993.62269342 4331.7276489 C-1996.73798263 4331.69764512 -1999.85328033 4331.66876808 -2002.96858311 4331.64021122 C-2022.45699674 4331.459916 -2041.94108541 4331.23950169 -2061.42297363 4330.6856842 C-2062.47239479 4330.65635362 -2062.47239479 4330.65635362 -2063.54301637 4330.6264305 C-2112.31851595 4329.23437529 -2159.66508879 4317.77642009 -2197.0078125 4284.16796875 C-2197.90757813 4283.36230469 -2198.80734375 4282.55664062 -2199.734375 4281.7265625 C-2218.67556813 4263.82580111 -2231.22289069 4239.43158852 -2232.07131767 4213.20488739 C-2232.19042101 4207.3872397 -2232.19802499 4201.568662 -2232.2109375 4195.75 C-2232.21799746 4193.80835444 -2232.22513018 4191.86670914 -2232.23233032 4189.92506409 C-2232.25221239 4183.6101959 -2232.2570318 4177.29536517 -2232.2578125 4170.98046875 C-2232.25810707 4169.89354988 -2232.25840164 4168.80663101 -2232.25870514 4167.68677521 C-2232.260539 4125.73493505 -2231.24985074 4083.92625477 -2229.1509552 4042.03018951 C-2229.0017511 4039.04676748 -2228.8539837 4036.06327659 -2228.7064209 4033.07977295 C-2226.06503396 3979.78855502 -2222.9749798 3926.53247788 -2219.4453125 3873.29296875 C-2214.34287773 3796.30847182 -2210.42972652 3719.28863021 -2208.06929779 3642.16997528 C-2208.01151757 3640.28860857 -2207.95272345 3638.40727307 -2207.89385986 3636.52593994 C-2207.09303553 3610.82411779 -2206.91597658 3585.12628033 -2206.88576889 3559.41366959 C-2206.8828811 3557.15902719 -2206.87872194 3554.90438984 -2206.87442017 3552.64974976 C-2206.77547343 3491.46898603 -2210.91587435 3430.95646482 -2229.0078125 3372.16796875 C-2229.27529297 3371.28463867 -2229.54277344 3370.40130859 -2229.81835938 3369.49121094 C-2241.71189055 3330.59732843 -2261.16520002 3295.06299683 -2284.59375 3262.00390625 C-2294.16575155 3248.48635917 -2302.96904878 3234.65204367 -2311.0078125 3220.16796875 C-2311.62785156 3219.06710938 -2312.24789062 3217.96625 -2312.88671875 3216.83203125 C-2318.45297975 3206.42493675 -2321.32861948 3195.96213131 -2321.26953125 3184.203125 C-2321.26631363 3183.34179459 -2321.26309601 3182.48046417 -2321.25978088 3181.59303284 C-2321.10569618 3170.5240491 -2319.75117762 3159.58598301 -2318.4453125 3148.60546875 C-2318.17719096 3146.27590671 -2317.91004245 3143.94623249 -2317.64379883 3141.61645508 C-2316.24584088 3129.45096416 -2314.78622093 3117.29275433 -2313.32737541 3105.13444328 C-2313.08676149 3103.12796503 -2312.84660942 3101.12143199 -2312.60658264 3099.11488342 C-2311.8399506 3092.70954973 -2311.06731654 3086.30505165 -2310.28100586 3079.90209961 C-2308.79213234 3067.66329995 -2307.4836797 3055.49151357 -2307.0078125 3043.16796875 C-2308.3278125 3047.45796875 -2309.6478125 3051.74796875 -2311.0078125 3056.16796875 C-2311.6678125 3056.16796875 -2312.3278125 3056.16796875 -2313.0078125 3056.16796875 C-2313.6678125 3052.86796875 -2314.3278125 3049.56796875 -2315.0078125 3046.16796875 C-2319.43242781 3045.06181492 -2322.34481354 3045.65733411 -2326.65234375 3046.65234375 C-2327.42862625 3046.82349197 -2328.20490875 3046.9946402 -2329.00471497 3047.17097473 C-2330.70806397 3047.5469158 -2332.41058275 3047.92663315 -2334.11236572 3048.30960083 C-2338.83714134 3049.37106996 -2343.56902684 3050.39985127 -2348.30078125 3051.4296875 C-2349.82209656 3051.76147255 -2349.82209656 3051.76147255 -2351.37414551 3052.09996033 C-2369.60556824 3056.05552983 -2387.92533489 3059.59496436 -2406.22473145 3063.2195282 C-2413.06013671 3064.57540215 -2419.8898187 3065.95615007 -2426.71484375 3067.36328125 C-2526.09483419 3087.79938955 -2526.09483419 3087.79938955 -2570.0078125 3087.16796875 C-2567.28243581 3085.35105096 -2565.90461409 3084.75270767 -2562.83105469 3084.0546875 C-2561.99298279 3083.86108643 -2561.15491089 3083.66748535 -2560.29144287 3083.46801758 C-2559.3883136 3083.26587646 -2558.48518433 3083.06373535 -2557.5546875 3082.85546875 C-2556.62110413 3082.64108154 -2555.68752075 3082.42669434 -2554.72564697 3082.20581055 C-2551.73766938 3081.52068507 -2548.74786757 3080.84396448 -2545.7578125 3080.16796875 C-2542.78240069 3079.49049037 -2539.80740597 3078.81124265 -2536.83282471 3078.13012695 C-2534.98243165 3077.70693915 -2533.13150285 3077.28608499 -2531.27996826 3076.86791992 C-2530.42928772 3076.67431885 -2529.57860718 3076.48071777 -2528.70214844 3076.28125 C-2527.96285095 3076.11407471 -2527.22355347 3075.94689941 -2526.46185303 3075.7746582 C-2523.2856116 3074.98942579 -2520.14978696 3074.07963593 -2517.0078125 3073.16796875 C-2553.75286863 3079.60780696 -2590.40740097 3086.4188862 -2627.02225721 3093.56339794 C-2633.87447859 3094.90017665 -2640.72788385 3096.23084475 -2647.58127141 3097.56162918 C-2675.27888325 3102.94061385 -2702.97020802 3108.35145071 -2730.65642047 3113.78879172 C-2735.72894351 3114.78494128 -2740.80164352 3115.78018547 -2745.87445068 3116.77488708 C-2747.30715817 3117.05583974 -2748.73986564 3117.33679252 -2750.17257309 3117.6177454 C-2752.30330691 3118.03557656 -2754.43404408 3118.45339056 -2756.56479311 3118.87114418 C-2764.08552318 3120.34573817 -2771.60578578 3121.82262133 -2779.12451172 3123.30740356 C-2894.88833832 3146.16385653 -2894.88833832 3146.16385653 -2952.20166016 3111.84667969 C-2954.82227332 3110.27896296 -2957.45055384 3108.72517031 -2960.08203125 3107.17578125 C-2979.17232983 3095.89047195 -2997.87332706 3083.93412276 -3016.0078125 3071.16796875 C-3017.38017531 3070.20698409 -3018.75257216 3069.24604804 -3020.125 3068.28515625 C-3028.86856548 3062.14894979 -3037.54930927 3055.92606831 -3046.203125 3049.6640625 C-3046.91992935 3049.17915848 -3047.6367337 3048.69425446 -3048.3752594 3048.19465637 C-3051.0078125 3046.16796875 -3051.0078125 3046.16796875 -3053.5952301 3043.2950592 C-3058.12550885 3038.61481645 -3062.64621507 3035.43416354 -3069.28766632 3034.90824699 C-3078.51908466 3035.18737646 -3087.61109709 3036.77775675 -3096.69841218 3038.33041763 C-3100.74848738 3039.00793529 -3104.80975406 3039.61036098 -3108.87028503 3040.22143555 C-3116.57996784 3041.39304571 -3124.27763565 3042.62997215 -3131.97306412 3043.89146709 C-3140.60066785 3045.30273848 -3149.23869184 3046.64354975 -3157.87861979 3047.97694588 C-3169.9855555 3049.84607397 -3182.0875445 3051.74264031 -3194.1818037 3053.69212341 C-3201.45497952 3054.86440233 -3208.73058982 3056.02109402 -3216.0078125 3057.16796875 C-3216.78318595 3057.29032646 -3217.55855941 3057.41268417 -3218.35742903 3057.53874969 C-3223.10207079 3058.285838 -3227.84834676 3059.02092613 -3232.59715784 3059.74104881 C-3234.08684175 3059.96828275 -3235.57604763 3060.19867633 -3237.06471789 3060.43245888 C-3239.12060525 3060.75455324 -3241.17796512 3061.06466874 -3243.23612976 3061.37182617 C-3244.40250316 3061.55033615 -3245.56887655 3061.72884613 -3246.7705946 3061.9127655 C-3252.84676881 3062.39177539 -3257.84639295 3060.64180191 -3263.40625 3058.39453125 C-3264.10922714 3058.11532333 -3264.81220428 3057.83611542 -3265.53648376 3057.54844666 C-3267.82165434 3056.63738752 -3270.10253991 3055.71621326 -3272.3828125 3054.79296875 C-3273.16780121 3054.47673553 -3273.95278992 3054.16050232 -3274.76156616 3053.83468628 C-3288.37079948 3048.3455371 -3301.79466567 3042.55961828 -3315.0078125 3036.16796875 C-3316.17618652 3035.6049707 -3317.34456055 3035.04197266 -3318.54833984 3034.46191406 C-3335.82652637 3026.1093646 -3352.61441569 3017.16933216 -3369.0078125 3007.16796875 C-3370.02633301 3006.54889648 -3371.04485352 3005.92982422 -3372.09423828 3005.29199219 C-3385.07547813 2997.37349651 -3397.73313457 2989.14149159 -3410.0078125 2980.16796875 C-3410.79559082 2979.5965918 -3411.58336914 2979.02521484 -3412.39501953 2978.43652344 C-3421.82379805 2971.59636312 -3431.0819337 2964.65555429 -3440.0078125 2957.16796875 C-3441.86112673 2955.66691566 -3443.71530982 2954.16693475 -3445.5703125 2952.66796875 C-3450.06128982 2948.99585909 -3454.39464597 2945.18250813 -3458.68359375 2941.27734375 C-3460.72823585 2939.42170218 -3462.79565399 2937.60040499 -3464.8828125 2935.79296875 C-3466.25972495 2934.58681513 -3467.63458368 2933.37831459 -3469.0078125 2932.16796875 C-3469.79671875 2931.47316406 -3470.585625 2930.77835938 -3471.3984375 2930.0625 C-3478.59573246 2923.59521639 -3485.4710001 2916.81263306 -3492.3203125 2909.98046875 C-3492.79607727 2909.50729218 -3493.27184204 2909.0341156 -3493.76202393 2908.54660034 C-3499.40376339 2902.929054 -3504.83184405 2897.21571582 -3510.0078125 2891.16796875 C-3511.46226767 2889.56028502 -3512.92002145 2887.9555716 -3514.3828125 2886.35546875 C-3519.11357343 2881.10615898 -3523.57778302 2875.6717293 -3528.0078125 2870.16796875 C-3528.93319658 2869.03483178 -3529.85899643 2867.90203426 -3530.78515625 2866.76953125 C-3550.25760793 2842.8470669 -3566.85897933 2817.0078025 -3582.0078125 2790.16796875 C-3582.43787598 2789.41386719 -3582.86793945 2788.65976563 -3583.31103516 2787.8828125 C-3625.09787176 2714.19197581 -3644.79742787 2620.10201223 -3650.0078125 2536.16796875 C-3650.06565918 2535.24886719 -3650.12350586 2534.32976563 -3650.18310547 2533.3828125 C-3654.83014455 2455.83103867 -3644.23531421 2377.91617109 -3554.80241394 2173.35592651 C-3551.86443469 2169.11552566 -3549.26554165 2164.84307492 -3546.8581543 2160.27880859 C-3535.88033723 2140.57012257 -3522.79319647 2134.94844129 -3501.96207809 2128.35541916 C-3497.99887894 2127.07939343 -3494.07087674 2125.70288909 -3490.13891602 2124.33422852 C-3483.92070604 2122.17985342 -3477.68912531 2120.07157286 -3471.44287109 2118 C-3461.69058107 2114.75882739 -3452.06404793 2111.21030755 -3442.45855713 2107.5586853 C-3439.13738373 2106.29903974 -3435.80872818 2105.05993281 -3432.47961426 2103.82145691 C-3430.02911916 2102.90981692 -3427.57961436 2101.99556379 -3425.13037109 2101.08056641 C-3421.49862126 2099.72408922 -3417.86597401 2098.37004358 -3414.23291016 2097.01708984 C-3382.7781345 2085.43057411 -3382.7781345 2085.43057411 -3352.0078125 2072.16796875 C-3351.28674316 2071.83619629 -3350.56567383 2071.50442383 -3349.82275391 2071.16259766 C-3341.08673749 2067.12140591 -3334.11026556 2063.7149979 -3330.23828125 2054.34765625 C-3329.75053223 2053.19088379 -3329.2627832 2052.03411133 -3328.76025391 2050.84228516 C-3328.5064093 2050.22556946 -3328.2525647 2049.60885376 -3327.99102783 2048.97344971 C-3326.59824545 2045.59442739 -3325.16150032 2042.23405204 -3323.73046875 2038.87109375 C-3323.42993591 2038.16220001 -3323.12940308 2037.45330627 -3322.81976318 2036.72293091 C-3318.7695151 2027.20066427 -3314.45202745 2017.79925739 -3310.10571289 2008.40917969 C-3309.77003799 2007.68390076 -3309.4343631 2006.95862183 -3309.08851624 2006.21136475 C-3308.41015522 2004.74588782 -3307.73139389 2003.28059612 -3307.05223083 2001.81549072 C-3304.98017461 1997.32899395 -3302.96838435 1992.82045829 -3300.99954224 1988.28775024 C-3299.70671777 1985.32070278 -3298.38928633 1982.36493721 -3297.06829834 1979.41033936 C-3296.45312408 1978.01795922 -3295.84912158 1976.62057993 -3295.25738525 1975.21807861 C-3290.13938706 1963.10960802 -3290.13938706 1963.10960802 -3284.80859375 1960.30859375 C-3282.88714249 1959.56297216 -3280.95092019 1958.85517979 -3279.0078125 1958.16796875 C-3277.58234428 1957.57624796 -3276.16112824 1956.97423007 -3274.74316406 1956.36474609 C-3270.47014523 1954.52842641 -3266.17999337 1952.73722311 -3261.88299561 1950.95782471 C-3257.03994143 1948.95210266 -3252.20156535 1946.93516474 -3247.36328125 1944.91796875 C-3246.38937439 1944.51212555 -3245.41546753 1944.10628235 -3244.41204834 1943.68814087 C-3236.56046988 1940.41099547 -3228.74317479 1937.05891408 -3220.93499756 1933.67999268 C-3138.40718145 1898.00867389 -3053.61664644 1867.85400774 -2968.67370605 1838.50941467 C-2962.03100036 1836.21443482 -2955.39035395 1833.91360803 -2948.75115967 1831.60848999 C-2924.48574588 1823.18440956 -2900.20767607 1814.81005903 -2875.81347656 1806.76513672 C-2865.8531433 1803.47587926 -2855.91854896 1800.11651267 -2845.99609375 1796.71504211 C-2818.28480911 1787.21566928 -2790.49720486 1777.9466486 -2762.70399773 1768.69050771 C-2757.98582147 1767.11903791 -2753.26815935 1765.54603202 -2748.55078125 1763.97216797 C-2721.194569 1754.84547462 -2693.83110442 1745.74521919 -2666.39920044 1736.84790039 C-2656.09851982 1733.50622308 -2645.8101562 1730.13080215 -2635.5390625 1726.69921875 C-2634.90320599 1726.48679031 -2634.26734947 1726.27436188 -2633.61222458 1726.05549622 C-2629.2433257 1724.59525826 -2624.87546829 1723.13191986 -2620.5078125 1721.66796875 C-2615.49808893 1719.98880933 -2610.48793137 1718.31096169 -2605.4765625 1716.63671875 C-2604.83638687 1716.42281998 -2604.19621124 1716.2089212 -2603.53663635 1715.98854065 C-2592.93405035 1712.44901648 -2582.3085491 1708.98248041 -2571.67617798 1705.53359985 C-2554.1042843 1699.83318968 -2536.56216085 1694.04793714 -2519.0390625 1688.19921875 C-2517.87854874 1687.81190079 -2516.71803497 1687.42458282 -2515.52235413 1687.02552795 C-2507.18345081 1684.2418369 -2498.84552624 1681.45522048 -2490.5078125 1678.66796875 C-2480.99805511 1675.48890929 -2471.48789361 1672.31106716 -2461.9765625 1669.13671875 C-2460.82229641 1668.75147034 -2459.66803032 1668.36622192 -2458.47878647 1667.96929932 C-2440.29199309 1661.90212595 -2422.07608273 1655.92920474 -2403.83984566 1650.0125351 C-2403.01065557 1649.74349617 -2402.18146549 1649.47445724 -2401.32714844 1649.19726562 C-2400.51846754 1648.93489357 -2399.70978664 1648.67252151 -2398.87660027 1648.40219879 C-2387.52575233 1644.71648121 -2376.2018773 1640.95003775 -2364.8828125 1637.16796875 C-2363.75481232 1636.79167328 -2362.62681213 1636.41537781 -2361.46463013 1636.02767944 C-2346.31671797 1630.97381132 -2331.19112624 1625.8592528 -2316.08880615 1620.67089844 C-2299.02862286 1614.81380188 -2281.91370322 1609.1224863 -2264.79818344 1603.42976379 C-2241.27462705 1595.60564747 -2217.77006846 1587.73423829 -2194.32522583 1579.676651 C-2188.08875733 1577.53470081 -2181.8460435 1575.41143458 -2175.6015625 1573.29296875 C-2154.95427259 1566.28667786 -2134.33008057 1559.22194908 -2113.75195312 1552.01489258 C-2103.82808259 1548.5405175 -2093.89653788 1545.08996539 -2083.953125 1541.671875 C-2055.66756404 1531.94612183 -2027.45482213 1522.04253468 -1999.32078552 1511.8865509 C-1992.2497507 1509.33430914 -1985.17492036 1506.79293369 -1978.09710693 1504.259552 C-1923.43428325 1484.69234387 -1869.03955757 1464.42108959 -1815.0078125 1443.16796875 C-1814.21056763 1442.85444458 -1813.41332275 1442.54092041 -1812.59191895 1442.21789551 C-1762.92586574 1422.66801847 -1713.76311856 1401.88348067 -1665.0078125 1380.16796875 C-1664.22472717 1379.8194989 -1663.44164185 1379.47102905 -1662.63482666 1379.11199951 C-1640.1535105 1369.1058058 -1617.79911577 1358.86648878 -1595.58123779 1348.28829956 C-1590.43572307 1345.84038109 -1585.27954301 1343.41608751 -1580.1171875 1341.00390625 C-1566.17164601 1334.48400434 -1552.26535 1327.92322029 -1538.54248047 1320.94238281 C-1533.14541337 1318.20379769 -1527.71972977 1315.54961756 -1522.24900818 1312.96209717 C-1503.64603761 1304.15026955 -1485.27039492 1294.87490775 -1466.86425781 1285.66137695 C-1461.77096827 1283.1118772 -1456.6758825 1280.56599091 -1451.58025742 1278.02116299 C-1447.58985723 1276.02778827 -1443.60042991 1274.03247262 -1439.61127472 1272.03660774 C-1437.7349182 1271.09810142 -1435.85827669 1270.16016462 -1433.98131561 1269.22286797 C-1422.92684307 1263.70108147 -1411.93789498 1258.07417606 -1401.02105713 1252.28468323 C-1396.06021332 1249.65726361 -1391.0434877 1247.1483304 -1386.0078125 1244.66796875 C-1378.56043448 1240.97000977 -1371.16956721 1237.18529081 -1363.82421875 1233.2890625 C-1356.76222781 1229.54899493 -1349.66270884 1225.88309615 -1342.55847168 1222.22418213 C-1325.3556856 1213.3637079 -1308.23052741 1204.37428082 -1291.18148804 1195.2210083 C-1281.75158226 1190.15850696 -1272.29837426 1185.1414149 -1262.83425903 1180.14318848 C-1251.82733491 1174.3297528 -1240.83865488 1168.49028167 -1229.92602539 1162.50097656 C-1224.10337075 1159.30543577 -1218.25935541 1156.15237239 -1212.40429688 1153.01660156 C-1202.09139543 1147.49161716 -1191.85590437 1141.85641297 -1181.69165039 1136.06274414 C-1174.52068798 1131.98873997 -1167.28015074 1128.05771176 -1160.0078125 1124.16796875 C-1148.87848031 1118.21172569 -1137.8778933 1112.05348321 -1126.90722656 1105.81103516 C-1121.89157139 1102.96871794 -1116.85432222 1100.16510261 -1111.8203125 1097.35546875 C-1091.59039376 1086.04661253 -1071.50666002 1074.4807058 -1051.44140625 1062.8828125 C-1047.12530405 1060.38843749 -1042.80475757 1057.9020293 -1038.48046875 1055.421875 C-1026.86220305 1048.75248353 -1015.30472186 1041.99686614 -1003.83276367 1035.07861328 C-997.9227908 1031.51483371 -992.00202383 1027.9712966 -986.0625 1024.45703125 C-985.38207642 1024.05442581 -984.70165283 1023.65182037 -984.00061035 1023.23701477 C-982.61486859 1022.41713388 -981.2291264 1021.59725371 -979.84338379 1020.77737427 C-967.70722478 1013.59423854 -955.64991706 1006.30466593 -943.68798828 998.83398438 C-939.60967878 996.29887925 -935.51340818 993.79323685 -931.41918945 991.28393555 C-919.4656745 983.95427059 -907.59193126 976.51185786 -895.78710938 968.9453125 C-892.94340199 967.12677862 -890.09346569 965.31835583 -887.2421875 963.51171875 C-875.04638427 955.76893604 -862.96455975 947.86864199 -850.9453125 939.85546875 C-850.26665131 939.40333008 -849.58799011 938.95119141 -848.88876343 938.48535156 C-844.25202032 935.39395495 -839.62606907 932.28690834 -835.0078125 929.16796875 C-834.29981506 928.69064301 -833.59181763 928.21331726 -832.86236572 927.7215271 C-830.71099551 926.26827866 -828.56389765 924.80892475 -826.41796875 923.34765625 C-825.77085434 922.91092087 -825.12373993 922.47418549 -824.45701599 922.0242157 C-780.680132 892.07629911 -764.85469141 825.74888381 -745.96611023 778.92115784 C-716.49561852 705.86767649 -686.10972032 633.20060074 -652.0078125 562.16796875 C-651.62715637 561.37507446 -651.24650024 560.58218018 -650.85430908 559.76525879 C-633.99687027 524.68089441 -633.99687027 524.68089441 -625.44287109 508.84667969 C-623.64894009 505.49808987 -621.88544788 502.13375556 -620.12109375 498.76953125 C-611.92761609 483.1727406 -603.45918542 467.82245252 -594.47265625 452.66455078 C-592.42610469 449.17654474 -590.46448773 445.64437961 -588.5078125 442.10546875 C-561.13959671 392.94416302 -528.60196383 345.50222094 -494.0078125 301.16796875 C-493.58467773 300.62398438 -493.16154297 300.08 -492.72558594 299.51953125 C-482.23403896 286.03816519 -471.48518233 272.76829489 -460.38476562 259.78320312 C-458.96659904 258.11962332 -457.55705933 256.44900999 -456.1484375 254.77734375 C-449.32679202 246.71127027 -442.22495867 238.95338447 -434.97143555 231.27514648 C-433.53313306 229.73169394 -432.10953314 228.17450496 -430.69458008 226.60961914 C-423.34808508 218.49031549 -415.69912007 210.70559163 -407.94555664 202.9753418 C-405.80953893 200.84472241 -403.67897132 198.70875652 -401.54882812 196.57226562 C-400.16698743 195.19108525 -398.78483683 193.81021486 -397.40234375 192.4296875 C-396.46609917 191.49040657 -396.46609917 191.49040657 -395.51094055 190.53215027 C-391.73709529 186.7779819 -387.84831665 183.2092965 -383.81408691 179.73612976 C-381.03980146 177.32756645 -378.37453422 174.80603391 -375.6953125 172.29296875 C-370.90266335 167.83417395 -365.98591422 163.60676084 -360.87890625 159.5078125 C-358.18163114 157.30962503 -355.54515707 155.05785513 -352.91723633 152.77807617 C-346.42145708 147.14437188 -339.78052594 141.76106335 -332.90429688 136.59619141 C-330.78110994 134.99724141 -328.66807253 133.38531859 -326.5546875 131.7734375 C-290.49516144 104.37621497 -252.03951473 80.06427779 -211.26708984 60.27099609 C-208.70070183 59.01803078 -206.14593298 57.74258833 -203.58984375 56.46875 C-159.38496793 34.63304375 -112.57465547 19.11316092 -64.6953125 7.66796875 C-63.35791519 7.34709793 -63.35791519 7.34709793 -61.99349976 7.01974487 C-41.2880688 2.07860806 -21.24394431 0.01026824 0 0 Z M1123.9921875 1505.16796875 C1124.9921875 1508.16796875 1124.9921875 1508.16796875 1124.9921875 1508.16796875 Z M1128.9921875 1528.16796875 C1129.31124295 1537.77153788 1131.05203603 1546.04666164 1133.9921875 1555.16796875 C1134.3221875 1555.16796875 1134.6521875 1555.16796875 1134.9921875 1555.16796875 C1134.86700723 1540.65663223 1134.86700723 1540.65663223 1128.9921875 1528.16796875 Z M1136.9921875 1568.16796875 C1137.42957342 1576.50338817 1139.00071643 1584.444891 1140.94848633 1592.54052734 C1141.43351151 1594.55888177 1141.90603873 1596.57987409 1142.37695312 1598.6015625 C1144.23051127 1606.52458531 1144.23051127 1606.52458531 1146.9921875 1614.16796875 C1148.11375746 1610.80325887 1147.85446786 1609.46194998 1147.171875 1606.0390625 C1146.96844482 1605.01159912 1146.76501465 1603.98413574 1146.55541992 1602.92553711 C1146.32830322 1601.82991455 1146.10118652 1600.73429199 1145.8671875 1599.60546875 C1145.52747925 1597.9339978 1145.52747925 1597.9339978 1145.1809082 1596.22875977 C1143.20804354 1586.7452721 1140.77577554 1577.4426472 1137.9921875 1568.16796875 C1137.6621875 1568.16796875 1137.3321875 1568.16796875 1136.9921875 1568.16796875 Z M1150.9921875 1633.16796875 C1151.16966334 1642.94527402 1152.59683011 1652.32043691 1154.4296875 1661.91796875 C1154.64713623 1663.07280762 1154.86458496 1664.22764648 1155.08862305 1665.41748047 C1155.41020386 1667.04967529 1155.41020386 1667.04967529 1155.73828125 1668.71484375 C1155.93091553 1669.69291992 1156.1235498 1670.67099609 1156.32202148 1671.67871094 C1156.91008184 1674.39074341 1156.91008184 1674.39074341 1158.9921875 1677.16796875 C1158.7121735 1668.17951936 1157.67354468 1659.51249284 1156.0546875 1650.66796875 C1155.79993652 1649.27167236 1155.79993652 1649.27167236 1155.54003906 1647.84716797 C1154.59697694 1642.86151288 1153.47838537 1638.01977166 1151.9921875 1633.16796875 C1151.6621875 1633.16796875 1151.3321875 1633.16796875 1150.9921875 1633.16796875 Z M1162.9921875 1695.16796875 C1162.9921875 1699.12796875 1162.9921875 1703.08796875 1162.9921875 1707.16796875 C1163.3221875 1707.16796875 1163.6521875 1707.16796875 1163.9921875 1707.16796875 C1163.9921875 1703.20796875 1163.9921875 1699.24796875 1163.9921875 1695.16796875 C1163.6621875 1695.16796875 1163.3321875 1695.16796875 1162.9921875 1695.16796875 Z M1166.9921875 1719.16796875 C1166.9921875 1722.79796875 1166.9921875 1726.42796875 1166.9921875 1730.16796875 C1167.3221875 1730.16796875 1167.6521875 1730.16796875 1167.9921875 1730.16796875 C1167.9921875 1726.53796875 1167.9921875 1722.90796875 1167.9921875 1719.16796875 C1167.6621875 1719.16796875 1167.3321875 1719.16796875 1166.9921875 1719.16796875 Z M1170.9921875 1744.16796875 C1170.9921875 1747.79796875 1170.9921875 1751.42796875 1170.9921875 1755.16796875 C1173.25828734 1750.63576908 1172.91954726 1748.9902395 1171.9921875 1744.16796875 C1171.6621875 1744.16796875 1171.3321875 1744.16796875 1170.9921875 1744.16796875 Z M1174.9921875 1765.16796875 C1174.9921875 1768.46796875 1174.9921875 1771.76796875 1174.9921875 1775.16796875 C1177.30781837 1773.28296604 1177.30781837 1773.28296604 1177.2421875 1770.16796875 C1177.30781837 1767.05297146 1177.30781837 1767.05297146 1174.9921875 1765.16796875 Z M1179.9921875 1787.16796875 C1178.73269701 1788.20203548 1178.73269701 1788.20203548 1178.89453125 1790.453125 C1178.90613281 1791.36964844 1178.91773437 1792.28617188 1178.9296875 1793.23046875 C1178.93871094 1794.14957031 1178.94773438 1795.06867188 1178.95703125 1796.015625 C1178.96863281 1796.72589844 1178.98023437 1797.43617187 1178.9921875 1798.16796875 C1179.6521875 1797.83796875 1180.3121875 1797.50796875 1180.9921875 1797.16796875 C1180.9921875 1793.86796875 1180.9921875 1790.56796875 1180.9921875 1787.16796875 C1180.6621875 1787.16796875 1180.3321875 1787.16796875 1179.9921875 1787.16796875 Z M1183.9921875 1812.16796875 C1182.8344369 1815.64122056 1182.92352098 1818.52864323 1182.9921875 1822.16796875 C1183.9821875 1822.66296875 1183.9821875 1822.66296875 1184.9921875 1823.16796875 C1184.9921875 1819.53796875 1184.9921875 1815.90796875 1184.9921875 1812.16796875 C1184.6621875 1812.16796875 1184.3321875 1812.16796875 1183.9921875 1812.16796875 Z M1187.9921875 1840.16796875 C1187.9921875 1844.12796875 1187.9921875 1848.08796875 1187.9921875 1852.16796875 C1188.3221875 1852.16796875 1188.6521875 1852.16796875 1188.9921875 1852.16796875 C1188.9921875 1848.20796875 1188.9921875 1844.24796875 1188.9921875 1840.16796875 C1188.6621875 1840.16796875 1188.3321875 1840.16796875 1187.9921875 1840.16796875 Z M1191.9921875 1865.16796875 C1191.9921875 1869.45796875 1191.9921875 1873.74796875 1191.9921875 1878.16796875 C1192.3221875 1878.16796875 1192.6521875 1878.16796875 1192.9921875 1878.16796875 C1192.9921875 1873.87796875 1192.9921875 1869.58796875 1192.9921875 1865.16796875 C1192.6621875 1865.16796875 1192.3321875 1865.16796875 1191.9921875 1865.16796875 Z M1195.9921875 1897.16796875 C1195.65356181 1905.08177663 1195.98777323 1912.50774674 1197.3671875 1920.29296875 C1197.49327393 1921.01476318 1197.61936035 1921.73655762 1197.74926758 1922.48022461 C1198.41263059 1925.98988255 1199.15461358 1929.08404035 1200.9921875 1932.16796875 C1202.00382245 1928.22173013 1201.90442643 1925.14669306 1201.28515625 1921.1328125 C1201.11048828 1919.99392578 1200.93582031 1918.85503906 1200.75585938 1917.68164062 C1200.56572266 1916.50150391 1200.37558594 1915.32136719 1200.1796875 1914.10546875 C1200.00115234 1912.92146484 1199.82261719 1911.73746094 1199.63867188 1910.51757812 C1198.65336819 1903.57745889 1198.65336819 1903.57745889 1195.9921875 1897.16796875 Z M1204.9921875 1954.16796875 C1203.73269701 1955.20203548 1203.73269701 1955.20203548 1203.89453125 1957.453125 C1203.90613281 1958.36964844 1203.91773437 1959.28617188 1203.9296875 1960.23046875 C1203.93871094 1961.14957031 1203.94773438 1962.06867188 1203.95703125 1963.015625 C1203.96863281 1963.72589844 1203.98023437 1964.43617187 1203.9921875 1965.16796875 C1206.20588801 1963.38139118 1206.20588801 1963.38139118 1206.1875 1961.00390625 C1206.16429688 1960.19179687 1206.14109375 1959.3796875 1206.1171875 1958.54296875 C1206.09914062 1957.72570313 1206.08109375 1956.9084375 1206.0625 1956.06640625 C1206.03929688 1955.43992187 1206.01609375 1954.8134375 1205.9921875 1954.16796875 C1205.6621875 1954.16796875 1205.3321875 1954.16796875 1204.9921875 1954.16796875 Z M1208.9921875 1985.16796875 C1207.81545552 1987.52143271 1207.82594884 1989.04857205 1207.8046875 1991.66796875 C1207.79050781 1992.46203125 1207.77632812 1993.25609375 1207.76171875 1994.07421875 C1207.79552447 1996.38830192 1207.79552447 1996.38830192 1209.9921875 1998.16796875 C1209.9921875 1993.87796875 1209.9921875 1989.58796875 1209.9921875 1985.16796875 C1209.6621875 1985.16796875 1209.3321875 1985.16796875 1208.9921875 1985.16796875 Z M1212.9921875 2022.16796875 C1212.9921875 2026.78796875 1212.9921875 2031.40796875 1212.9921875 2036.16796875 C1213.3221875 2036.16796875 1213.6521875 2036.16796875 1213.9921875 2036.16796875 C1213.9921875 2031.54796875 1213.9921875 2026.92796875 1213.9921875 2022.16796875 C1213.6621875 2022.16796875 1213.3321875 2022.16796875 1212.9921875 2022.16796875 Z M1216.9921875 2054.16796875 C1216.9921875 2059.44796875 1216.9921875 2064.72796875 1216.9921875 2070.16796875 C1217.3221875 2070.16796875 1217.6521875 2070.16796875 1217.9921875 2070.16796875 C1217.9921875 2064.88796875 1217.9921875 2059.60796875 1217.9921875 2054.16796875 C1217.6621875 2054.16796875 1217.3321875 2054.16796875 1216.9921875 2054.16796875 Z M1220.9921875 2093.16796875 C1220.9921875 2098.11796875 1220.9921875 2103.06796875 1220.9921875 2108.16796875 C1221.3221875 2108.16796875 1221.6521875 2108.16796875 1221.9921875 2108.16796875 C1223.07078612 2100.62748971 1223.07078612 2100.62748971 1221.9921875 2093.16796875 C1221.6621875 2093.16796875 1221.3321875 2093.16796875 1220.9921875 2093.16796875 Z M1225.9921875 2136.16796875 C1224.09729798 2138.06285827 1224.81199638 2140.73936021 1224.76171875 2143.2578125 C1224.8219083 2145.40923235 1224.8219083 2145.40923235 1226.9921875 2147.16796875 C1226.9921875 2143.53796875 1226.9921875 2139.90796875 1226.9921875 2136.16796875 C1226.6621875 2136.16796875 1226.3321875 2136.16796875 1225.9921875 2136.16796875 Z M1229.9921875 2188.16796875 C1229.9921875 2193.11796875 1229.9921875 2198.06796875 1229.9921875 2203.16796875 C1230.3221875 2203.16796875 1230.6521875 2203.16796875 1230.9921875 2203.16796875 C1230.9921875 2198.21796875 1230.9921875 2193.26796875 1230.9921875 2188.16796875 C1230.6621875 2188.16796875 1230.3321875 2188.16796875 1229.9921875 2188.16796875 Z M1233.9921875 2233.16796875 C1233.9921875 2239.43796875 1233.9921875 2245.70796875 1233.9921875 2252.16796875 C1234.3221875 2252.16796875 1234.6521875 2252.16796875 1234.9921875 2252.16796875 C1234.9921875 2245.89796875 1234.9921875 2239.62796875 1234.9921875 2233.16796875 C1234.6621875 2233.16796875 1234.3321875 2233.16796875 1233.9921875 2233.16796875 Z M1237.9921875 2317.16796875 C1237.9921875 2327.72796875 1237.9921875 2338.28796875 1237.9921875 2349.16796875 C1238.3221875 2349.16796875 1238.6521875 2349.16796875 1238.9921875 2349.16796875 C1238.9921875 2338.60796875 1238.9921875 2328.04796875 1238.9921875 2317.16796875 C1238.6621875 2317.16796875 1238.3321875 2317.16796875 1237.9921875 2317.16796875 Z M-3580.0078125 2477.16796875 C-3580.643098 2563.7742367 -3571.10710244 2647.11273896 -3536.0078125 2727.16796875 C-3535.56083008 2728.19132324 -3535.11384766 2729.21467773 -3534.65332031 2730.26904297 C-3516.23570707 2772.12303591 -3492.40942616 2810.0165415 -3462.0078125 2844.16796875 C-3461.5329541 2844.70212402 -3461.0580957 2845.2362793 -3460.56884766 2845.78662109 C-3454.03046737 2853.09937423 -3447.17930793 2860.09341862 -3440.2578125 2867.04296875 C-3439.46552246 2867.83993164 -3438.67323242 2868.63689453 -3437.85693359 2869.45800781 C-3433.06776589 2874.23414786 -3428.14302047 2878.76843744 -3423.0078125 2883.16796875 C-3421.81640065 2884.21335528 -3420.6262686 2885.26020241 -3419.4375 2886.30859375 C-3411.17401314 2893.55353105 -3402.75784573 2900.51892589 -3394.0078125 2907.16796875 C-3393.3389502 2907.67875977 -3392.67008789 2908.18955078 -3391.98095703 2908.71582031 C-3373.81811859 2922.52675421 -3354.78943651 2935.59430381 -3335.01730347 2947.00346375 C-3332.95071078 2948.20105934 -3330.89266079 2949.41253731 -3328.83447266 2950.62451172 C-3314.3241156 2959.10308235 -3299.44222131 2966.78077887 -3284.42871094 2974.31787109 C-3280.91409743 2976.08353516 -3277.41125101 2977.87140056 -3273.91032791 2979.66402054 C-3271.17274912 2981.06078891 -3268.42721803 2982.4413241 -3265.67928314 2983.81758881 C-3264.38300699 2984.47022625 -3263.0896934 2985.12878685 -3261.79965973 2985.79367828 C-3254.69378954 2989.44863853 -3249.04011768 2992.34460257 -3241.0078125 2991.16796875 C-3239.95767975 2991.03472198 -3238.907547 2990.90147522 -3237.82559204 2990.76419067 C-3233.97414761 2990.2350441 -3230.13796387 2989.62990912 -3226.30078125 2989.0078125 C-3224.86326389 2988.77964274 -3223.42567051 2988.55195153 -3221.98800659 2988.32470703 C-3218.1734202 2987.71940546 -3214.36047098 2987.10435964 -3210.54793167 2986.48630905 C-3208.1931341 2986.10511611 -3205.83794795 2985.72641677 -3203.4826355 2985.34841919 C-3185.64007608 2982.48244369 -3167.80572316 2979.58396563 -3150.0703125 2976.10546875 C-3149.35636322 2975.9660788 -3148.64241394 2975.82668884 -3147.90682983 2975.68307495 C-3141.79801328 2974.48045708 -3135.8928011 2973.22385279 -3130.0078125 2971.16796875 C-3131.40935908 2966.2998309 -3133.5583752 2962.22863197 -3136.2578125 2957.98046875 C-3136.69399902 2957.28977295 -3137.13018555 2956.59907715 -3137.57958984 2955.88745117 C-3144.4640321 2945.1635624 -3152.24205402 2935.05754886 -3160.00390625 2924.9609375 C-3167.00109514 2915.85659757 -3173.86243752 2906.73192377 -3180.23266602 2897.17382812 C-3183.43168163 2892.38988319 -3186.78164243 2887.7437467 -3190.20703125 2883.12109375 C-3196.07270976 2875.18430343 -3201.56531595 2867.02348574 -3207.0078125 2858.79296875 C-3207.98217931 2857.32443731 -3208.95670885 2855.85601383 -3209.93139648 2854.38769531 C-3212.63002306 2850.31872223 -3215.32093038 2846.24470465 -3218.0078125 2842.16796875 C-3218.62285645 2841.23500977 -3219.23790039 2840.30205078 -3219.87158203 2839.34082031 C-3258.04119541 2781.27287044 -3291.46772917 2719.95898319 -3319.0078125 2656.16796875 C-3319.30578735 2655.48007263 -3319.60376221 2654.79217651 -3319.9107666 2654.08343506 C-3334.05733553 2621.42314287 -3345.55314612 2587.98475754 -3356.64111328 2554.19042969 C-3357.99753251 2550.05695524 -3359.35960738 2545.92537616 -3360.72463989 2541.79473877 C-3361.48787031 2539.47848926 -3362.24395557 2537.15999109 -3362.99975586 2534.84130859 C-3365.23868306 2528.03091879 -3367.51548565 2521.46074637 -3371.0078125 2515.16796875 C-3371.6678125 2515.16796875 -3372.3278125 2515.16796875 -3373.0078125 2515.16796875 C-3373.3378125 2516.15796875 -3373.6678125 2517.14796875 -3374.0078125 2518.16796875 C-3374.9978125 2518.66296875 -3374.9978125 2518.66296875 -3376.0078125 2519.16796875 C-3376.10835937 2518.41902344 -3376.20890625 2517.67007813 -3376.3125 2516.8984375 C-3378.87761262 2506.82532672 -3393.88534663 2499.81485776 -3402.25634766 2494.82861328 C-3441.61869758 2471.84567599 -3487.93319312 2477.00486547 -3532.17901611 2477.0993042 C-3537.59069416 2477.10971702 -3543.00237722 2477.11413942 -3548.4140625 2477.11914062 C-3558.94532522 2477.12971845 -3569.47656635 2477.14667975 -3580.0078125 2477.16796875 Z M1237.9921875 2573.16796875 C1237.9921875 2585.37796875 1237.9921875 2597.58796875 1237.9921875 2610.16796875 C1238.3221875 2610.16796875 1238.6521875 2610.16796875 1238.9921875 2610.16796875 C1238.9921875 2597.95796875 1238.9921875 2585.74796875 1238.9921875 2573.16796875 C1238.6621875 2573.16796875 1238.3321875 2573.16796875 1237.9921875 2573.16796875 Z M1233.9921875 2660.16796875 C1233.9921875 2665.11796875 1233.9921875 2670.06796875 1233.9921875 2675.16796875 C1234.3221875 2675.16796875 1234.6521875 2675.16796875 1234.9921875 2675.16796875 C1234.9921875 2670.21796875 1234.9921875 2665.26796875 1234.9921875 2660.16796875 C1234.6621875 2660.16796875 1234.3321875 2660.16796875 1233.9921875 2660.16796875 Z M1229.9921875 2706.16796875 C1229.9921875 2710.45796875 1229.9921875 2714.74796875 1229.9921875 2719.16796875 C1230.3221875 2719.16796875 1230.6521875 2719.16796875 1230.9921875 2719.16796875 C1230.9921875 2714.87796875 1230.9921875 2710.58796875 1230.9921875 2706.16796875 C1230.6621875 2706.16796875 1230.3321875 2706.16796875 1229.9921875 2706.16796875 Z M1224.9921875 2749.16796875 C1224.9921875 2753.45796875 1224.9921875 2757.74796875 1224.9921875 2762.16796875 C1227.11183558 2757.9286726 1227.33596544 2755.80897088 1226.9921875 2751.16796875 C1226.3321875 2750.50796875 1225.6721875 2749.84796875 1224.9921875 2749.16796875 Z M1220.9921875 2778.16796875 C1220.9921875 2781.46796875 1220.9921875 2784.76796875 1220.9921875 2788.16796875 C1223.16984825 2783.81264726 1223.02258305 2782.70170917 1221.9921875 2778.16796875 C1221.6621875 2778.16796875 1221.3321875 2778.16796875 1220.9921875 2778.16796875 Z M1216.9921875 2815.16796875 C1216.9921875 2818.79796875 1216.9921875 2822.42796875 1216.9921875 2826.16796875 C1217.3221875 2826.16796875 1217.6521875 2826.16796875 1217.9921875 2826.16796875 C1217.9921875 2822.53796875 1217.9921875 2818.90796875 1217.9921875 2815.16796875 C1217.6621875 2815.16796875 1217.3321875 2815.16796875 1216.9921875 2815.16796875 Z M1207.9921875 2864.16796875 C1207.9921875 2866.80796875 1207.9921875 2869.44796875 1207.9921875 2872.16796875 C1208.6521875 2871.83796875 1209.3121875 2871.50796875 1209.9921875 2871.16796875 C1209.9921875 2869.18796875 1209.9921875 2867.20796875 1209.9921875 2865.16796875 C1209.3321875 2864.83796875 1208.6721875 2864.50796875 1207.9921875 2864.16796875 Z M-1467.0078125 2868.16796875 C-1467.0078125 2868.49796875 -1467.0078125 2868.82796875 -1467.0078125 2869.16796875 C-1462.7178125 2869.16796875 -1458.4278125 2869.16796875 -1454.0078125 2869.16796875 C-1454.0078125 2868.83796875 -1454.0078125 2868.50796875 -1454.0078125 2868.16796875 C-1458.2978125 2868.16796875 -1462.5878125 2868.16796875 -1467.0078125 2868.16796875 Z M-1436.0078125 2872.16796875 C-1436.0078125 2872.49796875 -1436.0078125 2872.82796875 -1436.0078125 2873.16796875 C-1430.36277696 2874.26469855 -1430.36277696 2874.26469855 -1425.0078125 2872.16796875 C-1428.6378125 2872.16796875 -1432.2678125 2872.16796875 -1436.0078125 2872.16796875 Z M-1392.0078125 2876.16796875 C-1388.01190399 2878.165923 -1386.32941584 2878.54376035 -1382.0078125 2878.16796875 C-1381.3478125 2877.50796875 -1380.6878125 2876.84796875 -1380.0078125 2876.16796875 C-1383.9678125 2876.16796875 -1387.9278125 2876.16796875 -1392.0078125 2876.16796875 Z M-1362.0078125 2880.16796875 C-1361.6778125 2880.82796875 -1361.3478125 2881.48796875 -1361.0078125 2882.16796875 C-1357.3778125 2882.16796875 -1353.7478125 2882.16796875 -1350.0078125 2882.16796875 C-1349.6778125 2881.50796875 -1349.3478125 2880.84796875 -1349.0078125 2880.16796875 C-1353.2978125 2880.16796875 -1357.5878125 2880.16796875 -1362.0078125 2880.16796875 Z M1203.9921875 2885.16796875 C1203.9921875 2887.80796875 1203.9921875 2890.44796875 1203.9921875 2893.16796875 C1206.27947484 2891.32912994 1206.27947484 2891.32912994 1206.1171875 2888.54296875 C1206.0553125 2887.36734375 1206.0553125 2887.36734375 1205.9921875 2886.16796875 C1205.3321875 2885.83796875 1204.6721875 2885.50796875 1203.9921875 2885.16796875 Z M-1562.0078125 2971.16796875 C-1562.0078125 2976.11796875 -1562.0078125 2981.06796875 -1562.0078125 2986.16796875 C-1561.6778125 2986.16796875 -1561.3478125 2986.16796875 -1561.0078125 2986.16796875 C-1561.0078125 2981.21796875 -1561.0078125 2976.26796875 -1561.0078125 2971.16796875 C-1561.3378125 2971.16796875 -1561.6678125 2971.16796875 -1562.0078125 2971.16796875 Z M-1558.0078125 3006.16796875 C-1558.6956361 3008.52164588 -1558.6956361 3008.52164588 -1559.0078125 3011.16796875 C-1558.0178125 3012.65296875 -1558.0178125 3012.65296875 -1557.0078125 3014.16796875 C-1556.32980216 3011.26723694 -1556.32980216 3011.26723694 -1556.0078125 3008.16796875 C-1556.6678125 3007.50796875 -1557.3278125 3006.84796875 -1558.0078125 3006.16796875 Z M-2320.3203125 3032.04296875 C-2321.53557617 3032.30400391 -2321.53557617 3032.30400391 -2322.77539062 3032.5703125 C-2323.93651367 3032.83134766 -2323.93651367 3032.83134766 -2325.12109375 3033.09765625 C-2325.82016846 3033.25476074 -2326.51924316 3033.41186523 -2327.23950195 3033.57373047 C-2329.23481103 3034.09828175 -2329.23481103 3034.09828175 -2331.0078125 3036.16796875 C-2321.40424337 3035.8489133 -2313.12911961 3034.10812022 -2304.0078125 3031.16796875 C-2304.0078125 3030.83796875 -2304.0078125 3030.50796875 -2304.0078125 3030.16796875 C-2309.7136474 3029.93881875 -2314.76830798 3030.76695793 -2320.3203125 3032.04296875 Z M-2372.0078125 3043.16796875 C-2372.0078125 3043.49796875 -2372.0078125 3043.82796875 -2372.0078125 3044.16796875 C-2365.4654468 3044.37753402 -2359.79042409 3043.71377371 -2353.4453125 3042.16796875 C-2352.62740234 3041.9771875 -2351.80949219 3041.78640625 -2350.96679688 3041.58984375 C-2348.97838206 3041.12471748 -2346.99277494 3040.64761448 -2345.0078125 3040.16796875 C-2345.0078125 3039.83796875 -2345.0078125 3039.50796875 -2345.0078125 3039.16796875 C-2354.70967418 3038.51756462 -2362.83680876 3040.36154138 -2372.0078125 3043.16796875 Z M-2396.0078125 3047.16796875 C-2396.0078125 3047.49796875 -2396.0078125 3047.82796875 -2396.0078125 3048.16796875 C-2389.83661448 3049.35909225 -2389.83661448 3049.35909225 -2384.0078125 3047.16796875 C-2387.9678125 3047.16796875 -2391.9278125 3047.16796875 -2396.0078125 3047.16796875 Z M-2415.0078125 3051.16796875 C-2414.3478125 3051.82796875 -2413.6878125 3052.48796875 -2413.0078125 3053.16796875 C-2409.90854431 3052.84597909 -2409.90854431 3052.84597909 -2407.0078125 3052.16796875 C-2407.0078125 3051.83796875 -2407.0078125 3051.50796875 -2407.0078125 3051.16796875 C-2409.6478125 3051.16796875 -2412.2878125 3051.16796875 -2415.0078125 3051.16796875 Z M-2437.0078125 3055.16796875 C-2435.22123493 3057.38166926 -2435.22123493 3057.38166926 -2432.84375 3057.36328125 C-2432.03164062 3057.34007813 -2431.21953125 3057.316875 -2430.3828125 3057.29296875 C-2429.56554688 3057.27492188 -2428.74828125 3057.256875 -2427.90625 3057.23828125 C-2427.27976562 3057.21507813 -2426.65328125 3057.191875 -2426.0078125 3057.16796875 C-2426.3378125 3056.50796875 -2426.6678125 3055.84796875 -2427.0078125 3055.16796875 C-2430.3078125 3055.16796875 -2433.6078125 3055.16796875 -2437.0078125 3055.16796875 Z M-2457.0078125 3059.16796875 C-2455.11026106 3061.51770693 -2455.11026106 3061.51770693 -2451.8828125 3061.29296875 C-2450.9340625 3061.25171875 -2449.9853125 3061.21046875 -2449.0078125 3061.16796875 C-2449.0078125 3060.50796875 -2449.0078125 3059.84796875 -2449.0078125 3059.16796875 C-2451.6478125 3059.16796875 -2454.2878125 3059.16796875 -2457.0078125 3059.16796875 Z M-2497.0078125 3068.16796875 C-2497.0078125 3068.49796875 -2497.0078125 3068.82796875 -2497.0078125 3069.16796875 C-2490.4654468 3069.37753402 -2484.79042409 3068.71377371 -2478.4453125 3067.16796875 C-2477.62740234 3066.9771875 -2476.80949219 3066.78640625 -2475.96679688 3066.58984375 C-2473.97838206 3066.12471748 -2471.99277494 3065.64761448 -2470.0078125 3065.16796875 C-2470.0078125 3064.83796875 -2470.0078125 3064.50796875 -2470.0078125 3064.16796875 C-2479.70967418 3063.51756462 -2487.83680876 3065.36154138 -2497.0078125 3068.16796875 Z M-1455.0078125 3205.16796875 C-1453.6878125 3206.81796875 -1452.3678125 3208.46796875 -1451.0078125 3210.16796875 C-1450.3478125 3209.83796875 -1449.6878125 3209.50796875 -1449.0078125 3209.16796875 C-1450.29746426 3207.79234021 -1451.63470543 3206.46030482 -1453.0078125 3205.16796875 C-1453.6678125 3205.16796875 -1454.3278125 3205.16796875 -1455.0078125 3205.16796875 Z M-1400.0078125 3331.16796875 C-1400.24113281 3332.0703125 -1400.47445312 3332.97265625 -1400.71484375 3333.90234375 C-1403.74845199 3345.08046784 -1407.86905606 3355.75335503 -1412.26098633 3366.45605469 C-1412.72915771 3367.61137695 -1413.1973291 3368.76669922 -1413.6796875 3369.95703125 C-1414.1034668 3370.98521973 -1414.52724609 3372.0134082 -1414.96386719 3373.07275391 C-1416.09835563 3376.43642192 -1416.60674287 3379.6472845 -1417.0078125 3383.16796875 C-1409.15140154 3373.24643606 -1405.09032335 3359.26508964 -1401.4453125 3347.29296875 C-1401.19418701 3346.48021484 -1400.94306152 3345.66746094 -1400.68432617 3344.83007812 C-1399.31395226 3340.11367103 -1398.75253552 3336.07714153 -1399.0078125 3331.16796875 C-1399.3378125 3331.16796875 -1399.6678125 3331.16796875 -1400.0078125 3331.16796875 Z M981.3671875 3407.66796875 C980.5834375 3408.49296875 979.7996875 3409.31796875 978.9921875 3410.16796875 C979.9821875 3410.16796875 980.9721875 3410.16796875 981.9921875 3410.16796875 C984.19361082 3407.72889815 984.19361082 3407.72889815 985.9921875 3405.16796875 C983.62940014 3404.93808369 983.62940014 3404.93808369 981.3671875 3407.66796875 Z M-1442.0078125 3426.16796875 C-1442.99339699 3427.74731514 -1443.97103791 3429.33162048 -1444.9453125 3430.91796875 C-1445.49058594 3431.7996875 -1446.03585938 3432.68140625 -1446.59765625 3433.58984375 C-1447.83496962 3435.85196792 -1448.54371763 3437.653632 -1449.0078125 3440.16796875 C-1445.34994795 3436.80668781 -1442.8293431 3433.82299138 -1441.0078125 3429.16796875 C-1441.3378125 3428.17796875 -1441.6678125 3427.18796875 -1442.0078125 3426.16796875 Z M947.9921875 3445.16796875 C937.7621875 3455.39796875 927.5321875 3465.62796875 916.9921875 3476.16796875 C919.89779148 3476.46878395 919.89779148 3476.46878395 921.4539032 3475.0670166 C921.96242325 3474.55183472 922.4709433 3474.03665283 922.99487305 3473.50585938 C923.57524826 3472.92525757 924.15562347 3472.34465576 924.75358582 3471.74645996 C925.37244156 3471.11212036 925.9912973 3470.47778076 926.62890625 3469.82421875 C927.26834671 3469.18053345 927.90778717 3468.53684814 928.56660461 3467.87365723 C930.61142893 3465.81201279 932.64558995 3463.74019214 934.6796875 3461.66796875 C936.06246221 3460.27015158 937.44591741 3458.87300722 938.83007812 3457.4765625 C942.22539933 3454.04812774 945.61119164 3450.61052911 948.9921875 3447.16796875 C948.6621875 3446.50796875 948.3321875 3445.84796875 947.9921875 3445.16796875 Z M888.9921875 3500.16796875 C885.07615446 3502.96217367 885.07615446 3502.96217367 882.9921875 3507.16796875 C885.87656529 3505.87497181 887.86438171 3504.50855512 889.9921875 3502.16796875 C889.6621875 3501.50796875 889.3321875 3500.84796875 888.9921875 3500.16796875 Z M-1483.0078125 3514.16796875 C-1483.68582284 3517.06870056 -1483.68582284 3517.06870056 -1484.0078125 3520.16796875 C-1483.3478125 3520.82796875 -1482.6878125 3521.48796875 -1482.0078125 3522.16796875 C-1481.32980216 3519.26723694 -1481.32980216 3519.26723694 -1481.0078125 3516.16796875 C-1481.6678125 3515.50796875 -1482.3278125 3514.84796875 -1483.0078125 3514.16796875 Z M867.9921875 3517.16796875 C865.0221875 3519.64296875 865.0221875 3519.64296875 861.9921875 3522.16796875 C862.3221875 3522.82796875 862.6521875 3523.48796875 862.9921875 3524.16796875 C864.9721875 3522.51796875 866.9521875 3520.86796875 868.9921875 3519.16796875 C868.6621875 3518.50796875 868.3321875 3517.84796875 867.9921875 3517.16796875 Z M847.3671875 3532.66796875 C846.5834375 3533.49296875 845.7996875 3534.31796875 844.9921875 3535.16796875 C845.3221875 3535.82796875 845.6521875 3536.48796875 845.9921875 3537.16796875 C849.90822054 3534.37376383 849.90822054 3534.37376383 851.9921875 3530.16796875 C849.62940014 3529.93808369 849.62940014 3529.93808369 847.3671875 3532.66796875 Z M-1463.0078125 3563.16796875 C-1461.55525551 3566.99743718 -1459.57885689 3568.2884717 -1456.0078125 3570.16796875 C-1457.29300815 3567.30099383 -1458.57910504 3565.19189163 -1461.0078125 3563.16796875 C-1461.6678125 3563.16796875 -1462.3278125 3563.16796875 -1463.0078125 3563.16796875 Z M-1216.0078125 3995.16796875 C-1216.0078125 3998.13796875 -1216.0078125 4001.10796875 -1216.0078125 4004.16796875 C-1215.6778125 4004.16796875 -1215.3478125 4004.16796875 -1215.0078125 4004.16796875 C-1215.0078125 4001.19796875 -1215.0078125 3998.22796875 -1215.0078125 3995.16796875 C-1215.3378125 3995.16796875 -1215.6678125 3995.16796875 -1216.0078125 3995.16796875 Z M-1221.0078125 4014.16796875 C-1221.0078125 4016.80796875 -1221.0078125 4019.44796875 -1221.0078125 4022.16796875 C-1220.3478125 4021.83796875 -1219.6878125 4021.50796875 -1219.0078125 4021.16796875 C-1219.0078125 4019.18796875 -1219.0078125 4017.20796875 -1219.0078125 4015.16796875 C-1219.6678125 4014.83796875 -1220.3278125 4014.50796875 -1221.0078125 4014.16796875 Z M-1225.0078125 4035.16796875 C-1225.0078125 4037.80796875 -1225.0078125 4040.44796875 -1225.0078125 4043.16796875 C-1222.72052516 4041.32912994 -1222.72052516 4041.32912994 -1222.8828125 4038.54296875 C-1222.9446875 4037.36734375 -1222.9446875 4037.36734375 -1223.0078125 4036.16796875 C-1223.6678125 4035.83796875 -1224.3278125 4035.50796875 -1225.0078125 4035.16796875 Z M-1278.0078125 4121.16796875 C-1282.2978125 4125.45796875 -1286.5878125 4129.74796875 -1291.0078125 4134.16796875 C-1287.7783649 4134.50068673 -1287.7783649 4134.50068673 -1285.30859375 4131.76171875 C-1284.30479007 4130.73797195 -1283.30895601 4129.70636335 -1282.3203125 4128.66796875 C-1281.80919922 4128.14332031 -1281.29808594 4127.61867187 -1280.77148438 4127.078125 C-1279.51008542 4125.78135971 -1278.25804038 4124.47550758 -1277.0078125 4123.16796875 C-1277.3378125 4122.50796875 -1277.6678125 4121.84796875 -1278.0078125 4121.16796875 Z M-1337.0078125 4184.16796875 C-1340.6378125 4187.79796875 -1344.2678125 4191.42796875 -1348.0078125 4195.16796875 C-1347.6778125 4195.82796875 -1347.3478125 4196.48796875 -1347.0078125 4197.16796875 C-1343.0478125 4193.20796875 -1339.0878125 4189.24796875 -1335.0078125 4185.16796875 C-1335.6678125 4184.83796875 -1336.3278125 4184.50796875 -1337.0078125 4184.16796875 Z M-1362.0078125 4213.16796875 C-1363.9878125 4215.14796875 -1365.9678125 4217.12796875 -1368.0078125 4219.16796875 C-1367.6778125 4219.82796875 -1367.3478125 4220.48796875 -1367.0078125 4221.16796875 C-1364.6978125 4218.85796875 -1362.3878125 4216.54796875 -1360.0078125 4214.16796875 C-1360.6678125 4213.83796875 -1361.3278125 4213.50796875 -1362.0078125 4213.16796875 Z M-1395.0078125 4255.16796875 C-1396.6578125 4256.81796875 -1398.3078125 4258.46796875 -1400.0078125 4260.16796875 C-1397.00521733 4260.50015067 -1397.00521733 4260.50015067 -1395.3203125 4258.66796875 C-1394.8871875 4258.17296875 -1394.4540625 4257.67796875 -1394.0078125 4257.16796875 C-1394.3378125 4256.50796875 -1394.6678125 4255.84796875 -1395.0078125 4255.16796875 Z M-1407.0078125 4271.16796875 C-1408.9878125 4273.47796875 -1410.9678125 4275.78796875 -1413.0078125 4278.16796875 C-1409.77305802 4276.55059151 -1408.30209229 4275.69167652 -1406.0078125 4273.16796875 C-1406.3378125 4272.50796875 -1406.6678125 4271.84796875 -1407.0078125 4271.16796875 Z " fill="#FFFFFF" transform="translate(3795.0078125,170.83203125)"/>
<path d="M0 0 C3 1 3 1 4.1328125 2.8984375 C6.69199367 9.2863149 7.73882844 15.13118789 8 22 C6.13671875 21.77734375 6.13671875 21.77734375 4 21 C0.28925128 15.16882344 -1.06911585 7.84246901 -1 1 C-0.67 0.67 -0.34 0.34 0 0 Z " fill="#FFFFFF" transform="translate(4886,1522)"/>
<path d="M0 0 C3 1 3 1 4.1328125 3.14453125 C4.46023438 4.02496094 4.78765625 4.90539063 5.125 5.8125 C5.45757812 6.68519531 5.79015625 7.55789063 6.1328125 8.45703125 C7.86741081 13.54362358 8.08933897 17.63966189 8 23 C5.26843315 21.9900089 4.18389763 21.32692912 2.734375 18.75 C0.42651711 12.30265098 -0.53417115 6.84035832 0 0 Z " fill="#FFFFFF" transform="translate(4894,1555)"/>
<path d="M0 0 C1.859375 0.19140625 1.859375 0.19140625 4 1 C7.84320363 7.53581852 8.57943349 14.58003226 8 22 C5 21 5 21 3.8671875 18.85546875 C3.37605469 17.53482422 3.37605469 17.53482422 2.875 16.1875 C2.54242188 15.31480469 2.20984375 14.44210937 1.8671875 13.54296875 C0.26252844 8.83741448 -0.09637272 5.01138119 0 0 Z " fill="#FFFFFF" transform="translate(4902,1589)"/>
<path d="M0 0 C0.99 0 1.98 0 3 0 C3.19658808 1.41543415 3.38187546 2.83244031 3.5625 4.25 C3.66691406 5.03890625 3.77132812 5.8278125 3.87890625 6.640625 C4.00027349 9.00532874 3.69633257 10.7511037 3 13 C2.01 13 1.02 13 0 13 C0 8.71 0 4.42 0 0 Z " fill="#FFFFFF" transform="translate(4915,1639)"/>
<path d="M0 0 C0.99 0.33 1.98 0.66 3 1 C3 3.97 3 6.94 3 10 C1.68 10 0.36 10 -1 10 C-1.02689216 8.52093108 -1.04634621 7.04172517 -1.0625 5.5625 C-1.07410156 4.73878906 -1.08570312 3.91507813 -1.09765625 3.06640625 C-1 1 -1 1 0 0 Z " fill="#FFFFFF" transform="translate(4882,1500)"/>
</svg>
